# xmcd CD database file
#
# Track frame offsets:
#	150
#	10222
#	24935
#	36146
#	45331
#	59471
#	74258
#	85291
#	95632
#	105566
#	117883
#	131783
#	143006
#	157306
#	169485
#	183910
#	193720
#	205458
#	223029
#	237661
#	249818
#	262322
#	275543
#	287835
#
# Disc length: 4002 seconds
#
# Revision: 2
# Processed by: cddbd v1.4PL0 Copyright (c) Steve Scherf et al.
# Submitted via: CDex 1.40Beta9
#
DISCID=6f0fa018
DTITLE=Claudine Longet - Digitally Remastered Best
DYEAR=1900
DGENRE=Easy Listening
TTITLE0=Hello Hello
TTITLE1=Meditation (Meditacao)
TTITLE2=Here There and Everywhere
TTITLE3=Good Day Sunshine
TTITLE4=Man and Woman (Un Homme Et Une Femme)
TTITLE5=The Look of Love
TTITLE6=Think of Rain
TTITLE7=Small Talk
TTITLE8=I Love How You Love Me
TTITLE9=Love is Blue (L'Amor Est Bleu)
TTITLE10=Happy Talk
TTITLE11=Walk in the Park
TTITLE12=It's Hard to say Goodbye
TTITLE13=Sleep Safe and Warm
TTITLE14=Am I Blue
TTITLE15=Hurry on Down
TTITLE16=Let It Be Me (Je T'Appartiens)
TTITLE17=Both Sides Now
TTITLE18=I Think It's Gonna Rain Today
TTITLE19=Everybody's Talking
TTITLE20=Lazy Summer Night
TTITLE21=Love Can Never Die
TTITLE22=Snow
TTITLE23=I Don't Intend to Spend Christmas Without You
EXTD=ID3G: 98
EXTT0=
EXTT1=
EXTT2=
EXTT3=
EXTT4=
EXTT5=
EXTT6=
EXTT7=
EXTT8=
EXTT9=
EXTT10=
EXTT11=
EXTT12=
EXTT13=
EXTT14=
EXTT15=
EXTT16=
EXTT17=
EXTT18=
EXTT19=
EXTT20=
EXTT21=
EXTT22=
EXTT23=
PLAYORDER=
